PathFileType	4	(X/Y/Z)	C:\Users\GVLAB1\Desktop\Emotion\trc\EMLATRE05.4.trc																																																																																																																									
DataRate	CameraRate	NumFrames	NumMarkers	Units	OrigDataRate	OrigDataStartFrame	OrigNumFrames																																																																																																																					
30	30	4	41	mm	30	76	302																																																																																																																					
Frame#	Time	EMLA_LFHD			EMLA_RFHD			EMLA_LBHD			EMLA_RBHD			EMLA_LFTShould			EMLA_RFTShould			EMLA_LRRShould			EMLA_RRRShould			EMLA_T10			EMLA_STRN			EMLA_TRUN			EMLA_LSHO			EMLA_LUPA			EMLA_LELB			EMLA_LFRM			EMLA_LWRA			EMLA_LWRB			EMLA_LFIN			EMLA_RSHO			EMLA_RUPA			EMLA_RELB			EMLA_RFRM			EMLA_RWRA			EMLA_RWRB			EMLA_RFIN			EMLA_LFWT			EMLA_RFWT			EMLA_LBWT			EMLA_RBWT			EMLA_LHTI			EMLA_LKNE			EMLA_LSHN			EMLA_LANK			EMLA_LHEE			EMLA_LTOE			EMLA_RTHI			EMLA_RKNE			EMLA_RSHN			EMLA_RANK			EMLA_RHEE			EMLA_RTOE		
		X1	Y1	Z1	X2	Y2	Z2	X3	Y3	Z3	X4	Y4	Z4	X5	Y5	Z5	X6	Y6	Z6	X7	Y7	Z7	X8	Y8	Z8	X9	Y9	Z9	X10	Y10	Z10	X11	Y11	Z11	X12	Y12	Z12	X13	Y13	Z13	X14	Y14	Z14	X15	Y15	Z15	X16	Y16	Z16	X17	Y17	Z17	X18	Y18	Z18	X19	Y19	Z19	X20	Y20	Z20	X21	Y21	Z21	X22	Y22	Z22	X23	Y23	Z23	X24	Y24	Z24	X25	Y25	Z25	X26	Y26	Z26	X27	Y27	Z27	X28	Y28	Z28	X29	Y29	Z29	X30	Y30	Z30	X31	Y31	Z31	X32	Y32	Z32	X33	Y33	Z33	X34	Y34	Z34	X35	Y35	Z35	X36	Y36	Z36	X37	Y37	Z37	X38	Y38	Z38	X39	Y39	Z39	X40	Y40	Z40	X41	Y41	Z41
																																																																																																																												
76	0.375	307.73291	1503.47278	-1633.47168	139.77629	1497.17139	-1666.95703	337.71179	1606.8905	-1737.29614	147.25725	1604.07666	-1774.91162	332.69122	1372.48767	-1788.40955	184.9726	1368.21277	-1803.55676	343.23056	1446.30908	-1924.6123	184.89011	1442.00745	-1939.79358	278.24612	1281.48254	-2004.27161	253.48962	1302.7345	-1768.27844	245.50407	1197.68274	-1762.59766	463.43076	1398.12927	-1819.53088	513.98315	1212.57776	-1842.01343	520.55389	1067.44482	-1851.7926	513.41119	932.22198	-1854.1748	414.68661	787.5199	-1798.7699	480.11844	769.86194	-1850.91943	463.37979	733.46698	-1792.9552	67.08279	1411.22632	-1871.31152	11.77864	1216.72473	-1896.72937	0.33876	1076.24573	-1932.21179	0.48038	973.7453	-1942.99792	53.00355	807.46643	-1841.34644	14.02639	793.65869	-1919.79834	-2.48485	758.40399	-1864.52441	347.49591	971.17212	-1801.10742	114.32168	981.52881	-1831.88306	336.23672	1006.09827	-2004.0293	158.89439	1006.44067	-2011.33655	362.80713	723.29932	-2013.35669	353.45718	515.33344	-1995.42725	313.12137	333.29288	-2013.39209	300.00189	174.05444	-2117.99072	227.41631	111.83458	-2190.6377	261.82419	73.50654	-1998.67041	104.26638	686.03632	-1931.26123	90.38774	520.79321	-1791.3634	152.73857	297.57611	-1807.98059	137.9583	150.40276	-1915.62988	207.33644	109.91143	-1967.43079	135.39638	79.85265	-1782.30127
77	0.38	305.38223	1500.45032	-1617.11377	137.43279	1493.86169	-1650.46375	334.96747	1605.55957	-1720.20325	144.31993	1601.98767	-1757.16638	330.56296	1371.3197	-1773.77002	182.95004	1366.92188	-1788.58337	340.66455	1446.86768	-1908.97156	182.30246	1442.21106	-1923.87451	276.10687	1282.77039	-1990.47498	251.82024	1300.95386	-1754.22546	244.16162	1195.86743	-1749.75903	460.98386	1398.00354	-1804.33545	512.8443	1213.11267	-1828.73279	520.27112	1068.10779	-1839.92883	513.64392	932.69873	-1843.27124	415.60901	787.33765	-1788.42419	480.8826	770.35303	-1841.17456	464.39359	733.40125	-1783.24829	64.69226	1410.4082	-1855.58667	10.23614	1215.8905	-1882.89795	-0.42362	1075.61023	-1919.59778	0.3811	973.01483	-1930.99963	54.31481	806.65863	-1829.91028	14.65339	793.04053	-1909.2627	-0.87934	757.36176	-1853.34094	347.71033	970.97052	-1790.74451	113.99534	980.96069	-1820.32092	334.30545	1007.10693	-1993.63586	157.0703	1007.09332	-1999.92053	362.05283	724.35352	-2005.25964	353.39185	515.87946	-1988.36609	313.3847	333.94095	-2008.66919	300.38885	176.51649	-2115.96948	227.51213	115.09754	-2189.20215	261.80899	73.43986	-1998.18799	106.18026	686.2124	-1920.02759	96.27717	520.21411	-1780.37488	158.93739	296.45203	-1779.09778	144.22948	140.80357	-1872.56104	213.47252	95.57631	-1920.79163	143.95418	80.66418	-1732.76318
78	0.385	302.74603	1496.43066	-1599.83606	134.81006	1489.64771	-1632.79346	331.76471	1602.92151	-1701.80835	140.99226	1599.09607	-1738.24817	328.2536	1369.54724	-1758.20923	180.55544	1364.66821	-1772.42065	337.45374	1446.60962	-1892.68604	179.0948	1441.41772	-1906.87537	273.26544	1283.21948	-1975.64526	249.68755	1298.69824	-1739.13611	242.65413	1193.54578	-1735.76416	458.24744	1397.40845	-1788.95313	511.15009	1213.13208	-1814.40662	519.36566	1068.11475	-1826.77197	513.57709	932.82745	-1831.42029	415.94678	786.52338	-1777.34131	481.29871	770.04193	-1830.13782	464.98099	732.73279	-1772.72742	61.80885	1408.99329	-1838.61462	8.17656	1214.28503	-1867.58716	-1.86203	1074.27844	-1905.54919	-0.42871	971.57928	-1917.35889	55.41512	805.32501	-1817.03125	14.91722	791.39691	-1896.5022	0.34341	755.73267	-1840.33997	348.37143	969.74408	-1779.59583	114.11389	979.52277	-1807.15344	332.42593	1007.14136	-1982.09021	155.31686	1006.79791	-1986.9585	360.82074	724.50659	-1996.12927	353.21335	515.74518	-1980.84802	313.37296	333.96545	-2003.81409	300.04449	178.35838	-2113.75659	226.9243	118.14287	-2187.72778	262.00821	73.31008	-1997.68628	108.60546	685.67712	-1907.62463	101.40881	518.6153	-1768.89282	165.9473	296.40939	-1749.87476	149.62862	132.34264	-1827.12964	217.56203	85.33216	-1873.75256	157.68053	79.36759	-1681.38611
79	0.39	299.83249	1491.12903	-1581.76685	131.8591	1484.02295	-1614.15503	328.13104	1599.20544	-1682.60181	137.0909	1594.93958	-1718.17126	325.65225	1366.86438	-1741.95374	178.05019	1361.40002	-1755.19104	333.71652	1445.39478	-1875.75452	175.40755	1439.27844	-1888.96008	270.10608	1282.27527	-1959.74561	247.81329	1295.40979	-1722.94421	241.64459	1190.19556	-1721.65906	455.41772	1396.17847	-1773.38379	508.9335	1212.36877	-1799.71143	517.83148	1067.44922	-1813.00525	512.69208	932.15741	-1818.29102	416.08884	784.9068	-1765.09717	481.60748	769.29321	-1818.10083	465.34842	731.37787	-1760.88721	58.58684	1406.03186	-1820.48303	5.55953	1211.34961	-1850.57922	-4.22497	1071.69202	-1889.76172	-2.21534	968.88782	-1902.0105	56.02267	802.63971	-1802.83887	14.86101	788.50226	-1881.73596	1.03022	752.78082	-1825.80811	348.70572	967.62592	-1766.81897	114.32181	976.76166	-1791.94983	330.80173	1006.1264	-1968.88574	153.76558	1005.23724	-1972.03479	359.0351	724.17194	-1986.00549	353.21732	515.39142	-1973.41492	313.64993	333.81223	-1999.40625	299.44696	180.2476	-2112.01855	225.91187	121.13997	-2186.19116	262.44824	73.21279	-1997.2522	110.73177	683.953	-1894.33557	106.02804	515.02289	-1757.06885	173.62698	296.49429	-1722.30286	155.13588	125.58748	-1782.36072	219.84885	78.54303	-1830.0542	179.16869	75.03368	-1631.98938
